<?xml version="1.0" standalone="no"?>
<!DOCTYPE svg PUBLIC "-//W3C//DTD SVG 20010904//EN"
 "http://www.w3.org/TR/2001/REC-SVG-20010904/DTD/svg10.dtd">
<svg version="1.0" xmlns="http://www.w3.org/2000/svg"
 width="1080.000000pt" height="1080.000000pt" viewBox="0 0 1080.000000 1080.000000"
 preserveAspectRatio="xMidYMid meet">

<g transform="translate(0.000000,1080.000000) scale(0.100000,-0.100000)"
fill="#000000" stroke="none">
<path d="M5294 10334 c3 -22 24 -237 47 -479 l41 -440 -258 -540 c-142 -297
-257 -547 -256 -555 0 -8 156 -343 347 -743 190 -401 345 -736 345 -745 0 -9
-83 -347 -183 -751 l-182 -735 -240 -38 c-132 -20 -251 -38 -266 -38 l-25 0
-31 418 -31 417 -354 761 c-335 720 -371 794 -692 1387 -186 345 -340 626
-342 625 -1 -2 9 -338 23 -748 l25 -745 314 -565 315 -565 24 -785 25 -785
135 -535 c73 -294 133 -535 132 -536 -10 -9 -867 753 -867 770 0 7 -16 179
-35 382 -19 203 -35 378 -35 390 0 11 -223 375 -496 809 l-496 789 -234 511
c-229 499 -234 509 -234 455 0 -30 7 -360 16 -734 l16 -678 341 -562 342 -561
107 -560 c96 -504 153 -874 136 -890 -17 -17 -266 120 -783 430 -298 179 -841
512 -982 602 -16 10 260 -268 612 -617 1142 -1131 1214 -1204 1211 -1207 -2
-2 -220 6 -485 17 -266 12 -501 20 -523 18 -38 -3 -19 -14 336 -208 206 -113
375 -207 375 -210 1 -3 -148 -124 -329 -269 -181 -146 -328 -266 -327 -267 1
-2 333 65 737 147 404 82 742 149 750 149 13 0 32 -88 99 -472 46 -260 87
-477 91 -481 4 -4 217 51 473 123 l465 132 401 -321 401 -321 358 291 c196
161 364 298 373 305 13 12 119 -6 699 -116 375 -72 685 -129 687 -126 3 2 50
150 105 328 55 177 104 328 108 333 5 6 369 159 809 340 440 182 801 332 801
335 0 3 -153 50 -340 105 -187 54 -340 102 -340 106 0 4 145 241 322 526 l323
518 525 675 c289 371 530 681 534 689 5 7 -513 -335 -1150 -761 -638 -426
-1165 -778 -1172 -782 -17 -10 -60 -92 458 874 342 639 1476 2701 1583 2880
28 47 0 21 -757 -692 l-620 -583 -256 -628 c-141 -346 -260 -628 -265 -628 -4
0 -78 158 -163 351 l-156 352 58 336 58 337 -80 273 -80 274 404 981 c222 539
402 982 400 984 -2 3 -320 -251 -705 -564 l-701 -568 0 -65 c0 -36 11 -388 25
-784 l25 -718 -108 -117 c-59 -65 -213 -233 -342 -374 -187 -205 -235 -252
-237 -234 -2 12 26 344 61 737 l63 715 -293 672 c-162 370 -294 679 -294 686
0 11 346 998 385 1098 l14 36 -551 494 c-303 272 -555 496 -560 498 -6 2 -8
-12 -4 -35z"/>
</g>
</svg>
